<?xml version="1.0" encoding="UTF-8"?>
<!DOCTYPE svg PUBLIC "-//W3C//DTD SVG 1.1//EN" "http://www.w3.org/Graphics/SVG/1.1/DTD/svg11.dtd">
<svg xmlns="http://www.w3.org/2000/svg" version="1.1" width="256px" height="256px" style="shape-rendering:geometricPrecision; text-rendering:geometricPrecision; image-rendering:optimizeQuality; fill-rule:evenodd; clip-rule:evenodd" xmlns:xlink="http://www.w3.org/1999/xlink">
<g><path style="opacity:0.021" fill="#43443f" d="M -0.5,-0.5 C 0.166667,-0.5 0.833333,-0.5 1.5,-0.5C 1.16667,0.5 0.5,1.16667 -0.5,1.5C -0.5,0.833333 -0.5,0.166667 -0.5,-0.5 Z"/></g>
<g><path style="opacity:0.022" fill="#43443f" d="M 16.5,-0.5 C 18.1667,-0.5 19.8333,-0.5 21.5,-0.5C 14.5,7.16667 7.16667,14.5 -0.5,21.5C -0.5,19.8333 -0.5,18.1667 -0.5,16.5C 5.5,11.1667 11.1667,5.5 16.5,-0.5 Z"/></g>
<g><path style="opacity:0.022" fill="#43443f" d="M 36.5,-0.5 C 38.1667,-0.5 39.8333,-0.5 41.5,-0.5C 27.8333,13.8333 13.8333,27.8333 -0.5,41.5C -0.5,39.8333 -0.5,38.1667 -0.5,36.5C 12.1667,24.5 24.5,12.1667 36.5,-0.5 Z"/></g>
<g><path style="opacity:0.022" fill="#43443f" d="M 56.5,-0.5 C 58.1667,-0.5 59.8333,-0.5 61.5,-0.5C 41.1667,20.5 20.5,41.1667 -0.5,61.5C -0.5,59.8333 -0.5,58.1667 -0.5,56.5C 18.8333,37.8333 37.8333,18.8333 56.5,-0.5 Z"/></g>
<g><path style="opacity:0.022" fill="#43443f" d="M 76.5,-0.5 C 78.1667,-0.5 79.8333,-0.5 81.5,-0.5C 54.5,27.1667 27.1667,54.5 -0.5,81.5C -0.5,79.8333 -0.5,78.1667 -0.5,76.5C 25.5,51.1667 51.1667,25.5 76.5,-0.5 Z"/></g>
<g><path style="opacity:0.022" fill="#43443f" d="M 96.5,-0.5 C 98.1667,-0.5 99.8333,-0.5 101.5,-0.5C 67.8333,33.8333 33.8333,67.8333 -0.5,101.5C -0.5,99.8333 -0.5,98.1667 -0.5,96.5C 32.1667,64.5 64.5,32.1667 96.5,-0.5 Z"/></g>
<g><path style="opacity:0.022" fill="#43443f" d="M 116.5,-0.5 C 118.167,-0.5 119.833,-0.5 121.5,-0.5C 81.1667,40.5 40.5,81.1667 -0.5,121.5C -0.5,119.833 -0.5,118.167 -0.5,116.5C 38.8333,77.8333 77.8333,38.8333 116.5,-0.5 Z"/></g>
<g><path style="opacity:0.022" fill="#43433f" d="M 136.5,-0.5 C 138.167,-0.5 139.833,-0.5 141.5,-0.5C 134.833,6.5 128.167,13.5 121.5,20.5C 118.856,21.1439 117.189,22.8106 116.5,25.5C 115.833,25.5 115.5,25.8333 115.5,26.5C 76.8333,64.8333 38.1667,103.167 -0.5,141.5C -0.5,139.833 -0.5,138.167 -0.5,136.5C 45.5,91.1667 91.1667,45.5 136.5,-0.5 Z"/></g>
<g><path style="opacity:0.022" fill="#43433f" d="M 156.5,-0.5 C 158.167,-0.5 159.833,-0.5 161.5,-0.5C 151.833,9.83333 141.833,19.8333 131.5,29.5C 130.599,28.7095 129.932,27.7095 129.5,26.5C 138.833,17.8333 147.833,8.83333 156.5,-0.5 Z"/></g>
<g><path style="opacity:0.022" fill="#43433f" d="M 176.5,-0.5 C 178.167,-0.5 179.833,-0.5 181.5,-0.5C 167.167,14.5 152.5,29.1667 137.5,43.5C 136.599,42.7095 135.932,41.7095 135.5,40.5C 149.5,27.1667 163.167,13.5 176.5,-0.5 Z"/></g>
<g><path style="opacity:0.022" fill="#43443f" d="M 196.5,-0.5 C 198.167,-0.5 199.833,-0.5 201.5,-0.5C 182.5,19.1667 163.167,38.5 143.5,57.5C 142.596,56.791 142.263,55.791 142.5,54.5C 160.5,36.1667 178.5,17.8333 196.5,-0.5 Z"/></g>
<g><path style="opacity:0.022" fill="#43433f" d="M 216.5,-0.5 C 218.167,-0.5 219.833,-0.5 221.5,-0.5C 197.833,23.8333 173.833,47.8333 149.5,71.5C 148.596,70.791 148.263,69.791 148.5,68.5C 171.167,45.5 193.833,22.5 216.5,-0.5 Z"/></g>
<g><path style="opacity:0.022" fill="#43433f" d="M 236.5,-0.5 C 238.167,-0.5 239.833,-0.5 241.5,-0.5C 213.167,28.5 184.5,57.1667 155.5,85.5C 154.596,84.791 154.263,83.791 154.5,82.5C 181.833,54.8333 209.167,27.1667 236.5,-0.5 Z"/></g>
<g><path style="opacity:0.022" fill="#43443f" d="M 255.5,1.5 C 255.5,3.16667 255.5,4.83333 255.5,6.5C 224.167,37.5 192.833,68.5 161.5,99.5C 160.89,98.609 160.557,97.609 160.5,96.5C 191.833,64.5 223.5,32.8333 255.5,1.5 Z"/></g>
<g><path style="opacity:0.982" fill="#000000" d="M 121.5,20.5 C 126.17,19.837 128.836,21.837 129.5,26.5C 129.932,27.7095 130.599,28.7095 131.5,29.5C 132.833,33.1667 134.167,36.8333 135.5,40.5C 135.932,41.7095 136.599,42.7095 137.5,43.5C 138.603,47.497 140.269,51.1637 142.5,54.5C 142.263,55.791 142.596,56.791 143.5,57.5C 144.93,61.3544 146.597,65.0211 148.5,68.5C 148.263,69.791 148.596,70.791 149.5,71.5C 150.93,75.3544 152.597,79.0211 154.5,82.5C 154.263,83.791 154.596,84.791 155.5,85.5C 156.93,89.3544 158.597,93.0211 160.5,96.5C 160.557,97.609 160.89,98.609 161.5,99.5C 162.93,103.354 164.597,107.021 166.5,110.5C 166.557,111.609 166.89,112.609 167.5,113.5C 167.987,114.473 168.487,115.473 169,116.5C 170.777,113.941 172.277,111.274 173.5,108.5C 174.167,108.5 174.5,108.167 174.5,107.5C 176.766,103.966 178.766,100.3 180.5,96.5C 180.5,95.8333 180.833,95.5 181.5,95.5C 183.435,94.8505 185.435,94.5172 187.5,94.5C 190.933,96.0096 192.933,98.6763 193.5,102.5C 193.66,104.153 194.326,105.486 195.5,106.5C 196.267,110.149 197.6,113.482 199.5,116.5C 199.433,117.959 199.766,119.292 200.5,120.5C 202.109,124.054 203.442,127.721 204.5,131.5C 204.932,132.71 205.599,133.71 206.5,134.5C 207.438,138.313 208.771,141.979 210.5,145.5C 210.833,146.833 211.167,148.167 211.5,149.5C 212.989,153.323 214.656,156.99 216.5,160.5C 216.263,161.791 216.596,162.791 217.5,163.5C 218.835,167.172 220.168,170.838 221.5,174.5C 221.989,175.995 222.655,177.329 223.5,178.5C 224.321,182.127 225.654,185.46 227.5,188.5C 227.433,189.959 227.766,191.292 228.5,192.5C 230.109,196.054 231.442,199.721 232.5,203.5C 232.932,204.71 233.599,205.71 234.5,206.5C 235.438,210.313 236.771,213.979 238.5,217.5C 238.66,219.153 239.326,220.486 240.5,221.5C 243.111,233.217 238.444,237.55 226.5,234.5C 224.833,234.5 223.167,234.5 221.5,234.5C 216.5,234.5 211.5,234.5 206.5,234.5C 204.833,234.5 203.167,234.5 201.5,234.5C 196.5,234.5 191.5,234.5 186.5,234.5C 184.833,234.5 183.167,234.5 181.5,234.5C 176.5,234.5 171.5,234.5 166.5,234.5C 164.833,234.5 163.167,234.5 161.5,234.5C 156.5,234.5 151.5,234.5 146.5,234.5C 144.833,234.5 143.167,234.5 141.5,234.5C 136.5,234.5 131.5,234.5 126.5,234.5C 124.833,234.5 123.167,234.5 121.5,234.5C 116.5,234.5 111.5,234.5 106.5,234.5C 104.833,234.5 103.167,234.5 101.5,234.5C 96.5,234.5 91.5,234.5 86.5,234.5C 84.8333,234.5 83.1667,234.5 81.5,234.5C 76.5,234.5 71.5,234.5 66.5,234.5C 64.8333,234.5 63.1667,234.5 61.5,234.5C 56.5,234.5 51.5,234.5 46.5,234.5C 44.8333,234.5 43.1667,234.5 41.5,234.5C 36.5,234.5 31.5,234.5 26.5,234.5C 24.8333,234.5 23.1667,234.5 21.5,234.5C 16.8303,235.163 14.1636,233.163 13.5,228.5C 13.5172,226.435 13.8505,224.435 14.5,222.5C 15.8333,216.167 17.1667,209.833 18.5,203.5C 19.3186,201.228 19.9853,198.894 20.5,196.5C 21.8333,190.167 23.1667,183.833 24.5,177.5C 25.3186,175.228 25.9853,172.894 26.5,170.5C 27.9914,164.201 29.3247,157.868 30.5,151.5C 31.3186,149.228 31.9853,146.894 32.5,144.5C 33.0164,141.101 33.8497,137.768 35,134.5C 37.6799,131.438 40.8465,130.772 44.5,132.5C 44.8333,133.5 45.5,134.167 46.5,134.5C 49.1897,137.185 52.1897,139.518 55.5,141.5C 55.9731,142.906 56.9731,143.573 58.5,143.5C 60.8003,145.984 63.4669,147.984 66.5,149.5C 67.1667,150.833 68.1667,151.833 69.5,152.5C 70.206,153.557 70.5393,153.224 70.5,151.5C 71.1667,151.5 71.5,151.167 71.5,150.5C 72.1667,148.167 72.8333,145.833 73.5,143.5C 76.5634,135.977 79.2301,128.31 81.5,120.5C 82.1667,120.5 82.5,120.167 82.5,119.5C 83.5664,117.299 84.233,114.965 84.5,112.5C 87.8916,104.66 90.8916,96.66 93.5,88.5C 94.4986,85.8382 95.4986,83.1716 96.5,80.5C 99.4428,72.9439 102.109,65.2772 104.5,57.5C 105.167,57.5 105.5,57.1667 105.5,56.5C 106.167,54.1667 106.833,51.8333 107.5,49.5C 110.563,41.9767 113.23,34.31 115.5,26.5C 116.167,26.5 116.5,26.1667 116.5,25.5C 117.189,22.8106 118.856,21.1439 121.5,20.5 Z M 133.5,83.5 C 131.833,84.8333 130.167,86.1667 128.5,87.5C 128.223,84.5525 128.556,81.7191 129.5,79C 132.031,79.1279 133.365,80.6279 133.5,83.5 Z M 134.5,86.5 C 136.344,90.01 138.011,93.6767 139.5,97.5C 136.167,100.5 132.833,103.5 129.5,106.5C 129.5,101.5 129.5,96.5 129.5,91.5C 131.5,90.1667 133.167,88.5 134.5,86.5 Z M 140.5,101.5 C 142.346,104.54 143.679,107.873 144.5,111.5C 140.167,116.5 135.5,121.167 130.5,125.5C 130.5,120.5 130.5,115.5 130.5,110.5C 133.833,107.5 137.167,104.5 140.5,101.5 Z M 173.5,108.5 C 172.277,111.274 170.777,113.941 169,116.5C 168.487,115.473 167.987,114.473 167.5,113.5C 169.5,111.833 171.5,110.167 173.5,108.5 Z M 146.5,115.5 C 148.109,119.054 149.442,122.721 150.5,126.5C 144.167,132.5 137.833,138.5 131.5,144.5C 131.5,139.5 131.5,134.5 131.5,129.5C 136.5,124.833 141.5,120.167 146.5,115.5 Z M 151.5,129.5 C 154.146,134.745 154.146,140.078 151.5,145.5C 145.5,151.167 139.5,156.833 133.5,162.5C 132.514,158.03 132.181,153.363 132.5,148.5C 139.167,142.5 145.5,136.167 151.5,129.5 Z M 147.5,154.5 C 144.178,161.812 140.845,169.145 137.5,176.5C 136.349,177.731 135.183,177.731 134,176.5C 133.502,173.518 133.335,170.518 133.5,167.5C 138.167,163.167 142.833,158.833 147.5,154.5 Z M 53.5,162.5 C 52.5,164.167 51.1667,165.5 49.5,166.5C 49.0074,164.194 48.6741,161.861 48.5,159.5C 50.9328,159.273 52.5994,160.273 53.5,162.5 Z M 56.5,165.5 C 60.1027,167.435 62.1027,170.435 62.5,174.5C 59.5,177.167 56.5,179.833 53.5,182.5C 52.5032,178.521 51.5032,174.521 50.5,170.5C 52.5,168.833 54.5,167.167 56.5,165.5 Z M 63.5,178.5 C 62.2808,185.381 60.4474,192.048 58,198.5C 55.7676,194.857 54.6009,190.857 54.5,186.5C 57.5,183.833 60.5,181.167 63.5,178.5 Z"/></g>
<g><path style="opacity:0.022" fill="#43443f" d="M 255.5,21.5 C 255.5,23.1667 255.5,24.8333 255.5,26.5C 232.5,48.8333 209.833,71.5 187.5,94.5C 185.435,94.5172 183.435,94.8505 181.5,95.5C 205.833,70.5 230.5,45.8333 255.5,21.5 Z"/></g>
<g><path style="opacity:0.022" fill="#43433f" d="M 255.5,41.5 C 255.5,43.1667 255.5,44.8333 255.5,46.5C 235.167,66.1667 215.167,86.1667 195.5,106.5C 194.326,105.486 193.66,104.153 193.5,102.5C 214.167,82.1667 234.833,61.8333 255.5,41.5 Z"/></g>
<g><path style="opacity:0.022" fill="#43443f" d="M 107.5,49.5 C 106.833,51.8333 106.167,54.1667 105.5,56.5C 104.833,56.5 104.5,56.8333 104.5,57.5C 69.5,92.1667 34.5,126.833 -0.5,161.5C -0.5,159.833 -0.5,158.167 -0.5,156.5C 35.5,120.833 71.5,85.1667 107.5,49.5 Z"/></g>
<g><path style="opacity:0.022" fill="#43443f" d="M 255.5,61.5 C 255.5,63.1667 255.5,64.8333 255.5,66.5C 237.167,84.5 218.833,102.5 200.5,120.5C 199.766,119.292 199.433,117.959 199.5,116.5C 218.167,98.1667 236.833,79.8333 255.5,61.5 Z"/></g>
<g><path style="opacity:0.022" fill="#43433f" d="M 96.5,80.5 C 95.4986,83.1716 94.4986,85.8382 93.5,88.5C 77.8333,103.833 62.1667,119.167 46.5,134.5C 45.5,134.167 44.8333,133.5 44.5,132.5C 61.5,114.833 78.8333,97.5 96.5,80.5 Z"/></g>
<g><path style="opacity:0.022" fill="#43443f" d="M 255.5,81.5 C 255.5,83.1667 255.5,84.8333 255.5,86.5C 239.167,102.5 222.833,118.5 206.5,134.5C 205.599,133.71 204.932,132.71 204.5,131.5C 221.5,114.833 238.5,98.1667 255.5,81.5 Z"/></g>
<g><path style="opacity:0.022" fill="#43443f" d="M 133.5,83.5 C 134.404,84.209 134.737,85.209 134.5,86.5C 133.167,88.5 131.5,90.1667 129.5,91.5C 128.566,90.4324 128.232,89.099 128.5,87.5C 130.167,86.1667 131.833,84.8333 133.5,83.5 Z"/></g>
<g><path style="opacity:0.022" fill="#43433f" d="M 180.5,96.5 C 178.766,100.3 176.766,103.966 174.5,107.5C 173.833,107.5 173.5,107.833 173.5,108.5C 171.5,110.167 169.5,111.833 167.5,113.5C 166.89,112.609 166.557,111.609 166.5,110.5C 170.833,105.5 175.5,100.833 180.5,96.5 Z"/></g>
<g><path style="opacity:0.022" fill="#43443f" d="M 139.5,97.5 C 139.833,98.8333 140.167,100.167 140.5,101.5C 137.167,104.5 133.833,107.5 130.5,110.5C 129.766,109.292 129.433,107.959 129.5,106.5C 132.833,103.5 136.167,100.5 139.5,97.5 Z"/></g>
<g><path style="opacity:0.022" fill="#43443f" d="M 255.5,101.5 C 255.5,103.167 255.5,104.833 255.5,106.5C 240.833,120.833 226.167,135.167 211.5,149.5C 211.167,148.167 210.833,146.833 210.5,145.5C 225.5,130.833 240.5,116.167 255.5,101.5 Z"/></g>
<g><path style="opacity:0.022" fill="#43433f" d="M 144.5,111.5 C 145.345,112.671 146.011,114.005 146.5,115.5C 141.5,120.167 136.5,124.833 131.5,129.5C 131.167,128.167 130.833,126.833 130.5,125.5C 135.5,121.167 140.167,116.5 144.5,111.5 Z"/></g>
<g><path style="opacity:0.022" fill="#43433f" d="M 84.5,112.5 C 84.233,114.965 83.5664,117.299 82.5,119.5C 81.8333,119.5 81.5,119.833 81.5,120.5C 73.5,127.833 65.8333,135.5 58.5,143.5C 56.9731,143.573 55.9731,142.906 55.5,141.5C 64.8333,131.5 74.5,121.833 84.5,112.5 Z"/></g>
<g><path style="opacity:0.022" fill="#43433f" d="M 255.5,121.5 C 255.5,123.167 255.5,124.833 255.5,126.5C 242.833,138.833 230.167,151.167 217.5,163.5C 216.596,162.791 216.263,161.791 216.5,160.5C 229.167,147.167 242.167,134.167 255.5,121.5 Z"/></g>
<g><path style="opacity:0.022" fill="#43433f" d="M 150.5,126.5 C 151.404,127.209 151.737,128.209 151.5,129.5C 145.5,136.167 139.167,142.5 132.5,148.5C 132.567,147.041 132.234,145.708 131.5,144.5C 137.833,138.5 144.167,132.5 150.5,126.5 Z"/></g>
<g><path style="opacity:0.022" fill="#43443f" d="M 255.5,141.5 C 255.5,143.167 255.5,144.833 255.5,146.5C 244.5,156.833 233.833,167.5 223.5,178.5C 222.655,177.329 221.989,175.995 221.5,174.5C 232.833,163.5 244.167,152.5 255.5,141.5 Z"/></g>
<g><path style="opacity:0.022" fill="#43443f" d="M 73.5,143.5 C 72.8333,145.833 72.1667,148.167 71.5,150.5C 70.8333,150.5 70.5,150.833 70.5,151.5C 69.8333,151.5 69.5,151.833 69.5,152.5C 68.1667,151.833 67.1667,150.833 66.5,149.5C 68.8333,147.5 71.1667,145.5 73.5,143.5 Z"/></g>
<g><path style="opacity:0.022" fill="#43443f" d="M 32.5,144.5 C 31.9853,146.894 31.3186,149.228 30.5,151.5C 20.1667,161.5 9.83333,171.5 -0.5,181.5C -0.5,179.833 -0.5,178.167 -0.5,176.5C 10.5,165.833 21.5,155.167 32.5,144.5 Z"/></g>
<g><path style="opacity:0.022" fill="#43443f" d="M 151.5,145.5 C 150.439,148.622 149.105,151.622 147.5,154.5C 142.833,158.833 138.167,163.167 133.5,167.5C 133.5,165.833 133.5,164.167 133.5,162.5C 139.5,156.833 145.5,151.167 151.5,145.5 Z"/></g>
<g><path style="opacity:0.022" fill="#43443f" d="M 255.5,161.5 C 255.5,163.167 255.5,164.833 255.5,166.5C 246.5,175.167 237.5,183.833 228.5,192.5C 227.766,191.292 227.433,189.959 227.5,188.5C 236.833,179.5 246.167,170.5 255.5,161.5 Z"/></g>
<g><path style="opacity:0.022" fill="#43443f" d="M 53.5,162.5 C 54.8333,163.167 55.8333,164.167 56.5,165.5C 54.5,167.167 52.5,168.833 50.5,170.5C 50.5674,169.041 50.2341,167.708 49.5,166.5C 51.1667,165.5 52.5,164.167 53.5,162.5 Z"/></g>
<g><path style="opacity:0.022" fill="#43443f" d="M 26.5,170.5 C 25.9853,172.894 25.3186,175.228 24.5,177.5C 16.1667,185.5 7.83333,193.5 -0.5,201.5C -0.5,199.833 -0.5,198.167 -0.5,196.5C 8.5,187.833 17.5,179.167 26.5,170.5 Z"/></g>
<g><path style="opacity:0.022" fill="#43443f" d="M 62.5,174.5 C 63.4345,175.568 63.7678,176.901 63.5,178.5C 60.5,181.167 57.5,183.833 54.5,186.5C 53.5655,185.432 53.2322,184.099 53.5,182.5C 56.5,179.833 59.5,177.167 62.5,174.5 Z"/></g>
<g><path style="opacity:0.022" fill="#43433f" d="M 255.5,181.5 C 255.5,183.167 255.5,184.833 255.5,186.5C 248.5,193.167 241.5,199.833 234.5,206.5C 233.599,205.71 232.932,204.71 232.5,203.5C 240.167,196.167 247.833,188.833 255.5,181.5 Z"/></g>
<g><path style="opacity:0.022" fill="#43433f" d="M 20.5,196.5 C 19.9853,198.894 19.3186,201.228 18.5,203.5C 12.1667,209.5 5.83333,215.5 -0.5,221.5C -0.5,219.833 -0.5,218.167 -0.5,216.5C 6.5,209.833 13.5,203.167 20.5,196.5 Z"/></g>
<g><path style="opacity:0.022" fill="#43443f" d="M 255.5,201.5 C 255.5,203.167 255.5,204.833 255.5,206.5C 250.167,211.167 245.167,216.167 240.5,221.5C 239.326,220.486 238.66,219.153 238.5,217.5C 244.167,212.167 249.833,206.833 255.5,201.5 Z"/></g>
<g><path style="opacity:0.022" fill="#43443f" d="M 255.5,221.5 C 255.5,223.167 255.5,224.833 255.5,226.5C 245.5,235.833 235.833,245.5 226.5,255.5C 224.833,255.5 223.167,255.5 221.5,255.5C 232.5,243.833 243.833,232.5 255.5,221.5 Z"/></g>
<g><path style="opacity:0.022" fill="#43433f" d="M 14.5,222.5 C 13.8505,224.435 13.5172,226.435 13.5,228.5C 8.83333,232.833 4.16667,237.167 -0.5,241.5C -0.5,239.833 -0.5,238.167 -0.5,236.5C 4.5,231.833 9.5,227.167 14.5,222.5 Z"/></g>
<g><path style="opacity:0.022" fill="#43443f" d="M 21.5,234.5 C 23.1667,234.5 24.8333,234.5 26.5,234.5C 19.8333,241.5 13.1667,248.5 6.5,255.5C 4.83333,255.5 3.16667,255.5 1.5,255.5C 8.16667,248.5 14.8333,241.5 21.5,234.5 Z"/></g>
<g><path style="opacity:0.022" fill="#43443f" d="M 41.5,234.5 C 43.1667,234.5 44.8333,234.5 46.5,234.5C 39.8333,241.5 33.1667,248.5 26.5,255.5C 24.8333,255.5 23.1667,255.5 21.5,255.5C 28.1667,248.5 34.8333,241.5 41.5,234.5 Z"/></g>
<g><path style="opacity:0.022" fill="#43443f" d="M 61.5,234.5 C 63.1667,234.5 64.8333,234.5 66.5,234.5C 59.8333,241.5 53.1667,248.5 46.5,255.5C 44.8333,255.5 43.1667,255.5 41.5,255.5C 48.1667,248.5 54.8333,241.5 61.5,234.5 Z"/></g>
<g><path style="opacity:0.022" fill="#43443f" d="M 81.5,234.5 C 83.1667,234.5 84.8333,234.5 86.5,234.5C 79.8333,241.5 73.1667,248.5 66.5,255.5C 64.8333,255.5 63.1667,255.5 61.5,255.5C 68.1667,248.5 74.8333,241.5 81.5,234.5 Z"/></g>
<g><path style="opacity:0.022" fill="#43443f" d="M 101.5,234.5 C 103.167,234.5 104.833,234.5 106.5,234.5C 99.8333,241.5 93.1667,248.5 86.5,255.5C 84.8333,255.5 83.1667,255.5 81.5,255.5C 88.1667,248.5 94.8333,241.5 101.5,234.5 Z"/></g>
<g><path style="opacity:0.022" fill="#43443f" d="M 121.5,234.5 C 123.167,234.5 124.833,234.5 126.5,234.5C 119.833,241.5 113.167,248.5 106.5,255.5C 104.833,255.5 103.167,255.5 101.5,255.5C 108.167,248.5 114.833,241.5 121.5,234.5 Z"/></g>
<g><path style="opacity:0.022" fill="#43443f" d="M 141.5,234.5 C 143.167,234.5 144.833,234.5 146.5,234.5C 139.833,241.5 133.167,248.5 126.5,255.5C 124.833,255.5 123.167,255.5 121.5,255.5C 128.167,248.5 134.833,241.5 141.5,234.5 Z"/></g>
<g><path style="opacity:0.022" fill="#43443f" d="M 161.5,234.5 C 163.167,234.5 164.833,234.5 166.5,234.5C 159.833,241.5 153.167,248.5 146.5,255.5C 144.833,255.5 143.167,255.5 141.5,255.5C 148.167,248.5 154.833,241.5 161.5,234.5 Z"/></g>
<g><path style="opacity:0.022" fill="#43443f" d="M 181.5,234.5 C 183.167,234.5 184.833,234.5 186.5,234.5C 179.833,241.5 173.167,248.5 166.5,255.5C 164.833,255.5 163.167,255.5 161.5,255.5C 168.167,248.5 174.833,241.5 181.5,234.5 Z"/></g>
<g><path style="opacity:0.022" fill="#43443f" d="M 201.5,234.5 C 203.167,234.5 204.833,234.5 206.5,234.5C 199.833,241.5 193.167,248.5 186.5,255.5C 184.833,255.5 183.167,255.5 181.5,255.5C 188.167,248.5 194.833,241.5 201.5,234.5 Z"/></g>
<g><path style="opacity:0.022" fill="#43443f" d="M 221.5,234.5 C 223.167,234.5 224.833,234.5 226.5,234.5C 219.833,241.5 213.167,248.5 206.5,255.5C 204.833,255.5 203.167,255.5 201.5,255.5C 208.167,248.5 214.833,241.5 221.5,234.5 Z"/></g>
<g><path style="opacity:0.022" fill="#43443f" d="M 255.5,241.5 C 255.5,243.167 255.5,244.833 255.5,246.5C 252.167,249.167 249.167,252.167 246.5,255.5C 244.833,255.5 243.167,255.5 241.5,255.5C 245.833,250.5 250.5,245.833 255.5,241.5 Z"/></g>
</svg>
